<svg width="731" height="198" viewBox="0 0 731 198" fill="none" xmlns="http://www.w3.org/2000/svg">
<path d="M14.4 146V35.6H66.72C83.04 35.6 91.2 43.76 91.2 60.08V80.88C91.2 97.2 83.04 105.36 66.72 105.36H27.84V146H14.4ZM27.84 93.2H66.88C74.1333 93.2 77.76 89.5733 77.76 82.32V58.64C77.76 51.3867 74.1333 47.76 66.88 47.76H27.84V93.2ZM112.941 146V72.4C116.675 66 123.608 62.8 133.741 62.8H149.741L156.141 67.6V74H135.501C131.021 74 127.768 75.2267 125.741 77.68V146H112.941ZM171.833 122V86.8C171.833 70.8 179.833 62.8 195.833 62.8H218.233C234.233 62.8 242.233 70.8 242.233 86.8V122C242.233 138 234.233 146 218.233 146H195.833C179.833 146 171.833 138 171.833 122ZM184.633 123.6C184.633 131.067 188.366 134.8 195.833 134.8H218.233C225.699 134.8 229.433 131.067 229.433 123.6V85.2C229.433 77.7333 225.699 74 218.233 74H195.833C188.366 74 184.633 77.7333 184.633 85.2V123.6Z" fill="url(#paint0_linear_2_80)"/>
<path d="M266.55 146V27.6H279.35V62.8H311.35C327.35 62.8 335.35 70.8 335.35 86.8V122C335.35 138 327.35 146 311.35 146H266.55ZM279.35 134.8H311.35C318.817 134.8 322.55 131.067 322.55 123.6V85.2C322.55 77.7333 318.817 74 311.35 74H279.35V134.8ZM359.035 123.28V27.6H371.835V124.56C371.835 131.92 375.568 135.813 383.035 136.24V147.28C367.035 147.28 359.035 139.28 359.035 123.28ZM399.958 122V86.8C399.958 70.8 407.958 62.8 423.958 62.8H446.358C462.358 62.8 470.358 70.8 470.358 86.8V122C470.358 138 462.358 146 446.358 146H423.958C407.958 146 399.958 138 399.958 122ZM412.758 123.6C412.758 131.067 416.491 134.8 423.958 134.8H446.358C453.824 134.8 457.558 131.067 457.558 123.6V85.2C457.558 77.7333 453.824 74 446.358 74H423.958C416.491 74 412.758 77.7333 412.758 85.2V123.6ZM493.395 122V86.8C493.395 70.8 501.395 62.8 517.395 62.8H548.755L555.155 67.6V74H517.395C509.928 74 506.195 77.7333 506.195 85.2V123.6C506.195 131.067 509.928 134.8 517.395 134.8H555.155V141.2L548.755 146H517.395C501.395 146 493.395 138 493.395 122ZM575.3 146V27.6H588.1V105.2L626.66 62.8H639.14L640.26 65.2L610.5 97.68L642.5 143.6L641.38 146H628.9L602.02 106.96L588.1 122V146H575.3ZM656.631 141.2V134.8H693.591C700.951 134.8 704.631 131.067 704.631 123.6C704.631 116.027 701.698 111.76 695.831 110.8L676.791 107.6C663.351 105.36 656.631 98.0533 656.631 85.68C656.631 70.4267 664.631 62.8 680.631 62.8H707.351L713.751 67.6V74H680.471C673.005 74 669.271 77.7333 669.271 85.2C669.271 91.92 672.418 95.8133 678.711 96.88L697.751 100.08C710.978 102.213 717.591 109.84 717.591 122.96C717.591 138.32 709.485 146 693.271 146H663.031L656.631 141.2Z" fill="url(#paint1_linear_2_80)"/>
<defs>
<linearGradient id="paint0_linear_2_80" x1="0" y1="99" x2="731" y2="99" gradientUnits="userSpaceOnUse">
<stop offset="0.3499" stop-color="#161616"/>
<stop offset="0.35" stop-color="#22C55E"/>
</linearGradient>
<linearGradient id="paint1_linear_2_80" x1="0" y1="99" x2="731" y2="99" gradientUnits="userSpaceOnUse">
<stop offset="0.35" stop-color="#22C55E"/>
</linearGradient>
</defs>
</svg>
