<svg width="1070" height="198" viewBox="0 0 1070 198" fill="none" xmlns="http://www.w3.org/2000/svg">
<path d="M169 183V45H234.4C254.8 45 265 55.2 265 75.6V101.6C265 122 254.8 132.2 234.4 132.2H185.8V183H169ZM185.8 117H234.6C243.667 117 248.2 112.467 248.2 103.4V73.8C248.2 64.7333 243.667 60.2 234.6 60.2H185.8V117ZM292.177 183V91C296.843 83 305.51 79 318.177 79H338.177L346.177 85V93H320.377C314.777 93 310.71 94.5333 308.177 97.6V183H292.177ZM365.791 153V109C365.791 89 375.791 79 395.791 79H423.791C443.791 79 453.791 89 453.791 109V153C453.791 173 443.791 183 423.791 183H395.791C375.791 183 365.791 173 365.791 153ZM381.791 155C381.791 164.333 386.457 169 395.791 169H423.791C433.124 169 437.791 164.333 437.791 155V107C437.791 97.6667 433.124 93 423.791 93H395.791C386.457 93 381.791 97.6667 381.791 107V155Z" fill="url(#paint0_linear_2_21)"/>
<path d="M484.188 183V35H500.188V79H540.188C560.188 79 570.188 89 570.188 109V153C570.188 173 560.188 183 540.188 183H484.188ZM500.188 169H540.188C549.521 169 554.188 164.333 554.188 155V107C554.188 97.6667 549.521 93 540.188 93H500.188V169ZM599.794 154.6V35H615.794V156.2C615.794 165.4 620.46 170.267 629.794 170.8V184.6C609.794 184.6 599.794 174.6 599.794 154.6ZM650.947 153V109C650.947 89 660.947 79 680.947 79H708.947C728.947 79 738.947 89 738.947 109V153C738.947 173 728.947 183 708.947 183H680.947C660.947 183 650.947 173 650.947 153ZM666.947 155C666.947 164.333 671.614 169 680.947 169H708.947C718.28 169 722.947 164.333 722.947 155V107C722.947 97.6667 718.28 93 708.947 93H680.947C671.614 93 666.947 97.6667 666.947 107V155ZM767.744 153V109C767.744 89 777.744 79 797.744 79H836.944L844.944 85V93H797.744C788.41 93 783.744 97.6667 783.744 107V155C783.744 164.333 788.41 169 797.744 169H844.944V177L836.944 183H797.744C777.744 183 767.744 173 767.744 153ZM870.125 183V35H886.125V132L934.325 79H949.925L951.325 82L914.125 122.6L954.125 180L952.725 183H937.125L903.525 134.2L886.125 153V183H870.125ZM971.789 177V169H1017.99C1027.19 169 1031.79 164.333 1031.79 155C1031.79 145.533 1028.12 140.2 1020.79 139L996.989 135C980.189 132.2 971.789 123.067 971.789 107.6C971.789 88.5333 981.789 79 1001.79 79H1035.19L1043.19 85V93H1001.59C992.256 93 987.589 97.6667 987.589 107C987.589 115.4 991.522 120.267 999.389 121.6L1023.19 125.6C1039.72 128.267 1047.99 137.8 1047.99 154.2C1047.99 173.4 1037.86 183 1017.59 183H979.789L971.789 177Z" fill="url(#paint1_linear_2_21)"/>
<rect y="46" width="137" height="137" fill="#22C55E"/>
<path fill-rule="evenodd" clip-rule="evenodd" d="M39.2218 74.5189C43.5176 71.1604 50.4824 71.1604 54.7782 74.5189L98.7782 108.919C103.074 112.277 103.074 117.723 98.7782 121.081L54.7782 155.481C50.4824 158.84 43.5176 158.84 39.2218 155.481C34.9261 152.123 34.9261 146.677 39.2218 143.319L75.4437 115L39.2218 86.6811C34.9261 83.3226 34.9261 77.8774 39.2218 74.5189Z" fill="#3D3D3D"/>
<defs>
<linearGradient id="paint0_linear_2_21" x1="151" y1="99" x2="1070" y2="99" gradientUnits="userSpaceOnUse">
<stop offset="0.32" stop-color="#161616"/>
<stop offset="0.35" stop-color="#22C55E"/>
</linearGradient>
<linearGradient id="paint1_linear_2_21" x1="151" y1="99" x2="1070" y2="99" gradientUnits="userSpaceOnUse">
<stop offset="0.32" stop-color="white"/>
<stop offset="0.35" stop-color="#22C55E"/>
</linearGradient>
</defs>
</svg>
